<svg id="Group_2" data-name="Group 2" xmlns="http://www.w3.org/2000/svg" xmlns:xlink="http://www.w3.org/1999/xlink" width="87.619" height="95.733" viewBox="0 0 87.619 95.733">
  <defs>
    <clipPath id="clip-path">
      <rect id="Rectangle_9" data-name="Rectangle 9" width="87.619" height="95.733" fill="#fff"/>
    </clipPath>
  </defs>
  <g id="Group_1" data-name="Group 1" clip-path="url(#clip-path)">
    <path id="Path_1" data-name="Path 1" d="M.186,9.965V.334A10.482,10.482,0,0,1,1.9.041c17.8.016,35.6-.173,53.4.151C69.442.45,82.536,11.116,86.351,24.744c5.734,20.482-6.807,40.514-27.836,44.043-4.468.75-9.125.38-13.694.52-.618.019-1.237,0-1.856,0l-.3.493L70.32,95.393c-1.2.064-1.9.133-2.6.134-3.434.009-6.872.1-10.3-.061a5.41,5.41,0,0,1-3.171-1.238C45.58,86.327,37,78.329,28.364,70.391a3.549,3.549,0,0,0-2.041-1.024c-4.577-.089-9.157-.046-13.736-.033a7.931,7.931,0,0,0-1.23.285l27.582,25.5-.164.441a63.979,63.979,0,0,0-7.988.06c-4.551.577-7.863-1.049-11.026-4.289C14.852,86.3,9.421,81.782,4.353,76.9A10.25,10.25,0,0,1,8.919,59.494a15.58,15.58,0,0,1,3.912-.312c13.336-.021,26.672.018,40.008-.023A24.469,24.469,0,0,0,53.5,10.227c-17-.1-34-.018-51-.031A23.109,23.109,0,0,1,.186,9.965" transform="translate(-0.122 0)" fill="#fff"/>
    <path id="Path_2" data-name="Path 2" d="M.169,71.081V61.222c7.1-.9,14.629-.249,21.79-.252q11.806-.006,23.612,0c5.873.006,11.949-.73,16.629,3.521a13.657,13.657,0,0,1,3.79,14.2c-4.235,13.057-22.053,9.4-32.511,9.405C22.473,88.1,5.062,85.178.113,98.105-1.005,89.047,6.36,80.453,14.9,78.5c5.608-1.286,11.923-.515,17.643-.516,5.789,0,11.581.056,17.37-.011,1.867-.022,4.374.334,5.735-1.255a3.488,3.488,0,0,0-.924-5.158c-1.567-.969-4.153-.473-5.872-.474H.169" transform="translate(0 -39.88)" fill="#fff"/>
  </g>
</svg>
